# Blender v2.79 (sub 0) OBJ File: 'barril.blend'
# www.blender.org
mtllib barril.mtl
o Cylinder_Cylinder.001
v 0.000000 -1.000000 -1.000000
v 0.000000 1.000000 -1.000000
v 0.707107 -1.000000 -0.707107
v 0.707107 1.000000 -0.707107
v 1.000000 -1.000000 0.000000
v 1.000000 1.000000 0.000000
v 0.707107 -1.000000 0.707107
v 0.707107 1.000000 0.707107
v -0.000000 -1.000000 1.000000
v -0.000000 1.000000 1.000000
v -0.707107 -1.000000 0.707107
v -0.707107 1.000000 0.707107
v -1.000000 -1.000000 -0.000000
v -1.000000 1.000000 -0.000000
v -0.707107 -1.000000 -0.707107
v -0.707107 1.000000 -0.707107
v 0.000000 -0.665925 -1.135162
v 0.000000 0.666085 -1.135162
v 0.802681 0.666085 -0.802681
v 0.802681 -0.665925 -0.802681
v 1.135162 0.666085 0.000000
v 1.135162 -0.665925 0.000000
v 0.802681 0.666085 0.802681
v 0.802681 -0.665925 0.802681
v -0.000000 0.666085 1.135162
v -0.000000 -0.665925 1.135162
v -0.802681 0.666085 0.802681
v -0.802681 -0.665925 0.802681
v -1.135162 0.666085 -0.000000
v -1.135162 -0.665925 -0.000000
v -0.802681 0.666085 -0.802681
v -0.802681 -0.665925 -0.802681
v 0.000000 -0.496300 -1.135162
v 0.000000 0.496460 -1.135162
v 0.802681 0.496460 -0.802681
v 0.802681 -0.496300 -0.802681
v 1.135162 0.496460 0.000000
v 1.135162 -0.496300 0.000000
v 0.802681 0.496460 0.802681
v 0.802681 -0.496300 0.802681
v -0.000000 0.496460 1.135162
v -0.000000 -0.496300 1.135162
v -0.802681 0.496460 0.802681
v -0.802681 -0.496300 0.802681
v -1.135162 0.496460 -0.000000
v -1.135162 -0.496300 -0.000000
v -0.802681 0.496460 -0.802681
v -0.802681 -0.496300 -0.802681
v 0.000000 0.493560 -1.173983
v 0.000000 0.668985 -1.173983
v -0.830132 0.668985 -0.830131
v -1.173983 0.668985 -0.000000
v -0.830132 0.668985 0.830131
v -0.000000 0.668985 1.173983
v 0.830131 0.668985 0.830131
v 1.173983 0.668985 0.000000
v 0.830131 0.668985 -0.830131
v 0.830131 0.493560 -0.830131
v 1.173983 0.493560 0.000000
v 0.830131 0.493560 0.830131
v -0.000000 0.493560 1.173983
v -0.830132 0.493560 0.830131
v -1.173983 0.493560 -0.000000
v -0.830132 0.493560 -0.830131
v 0.831219 -0.493284 -0.831219
v 0.831219 -0.668940 -0.831219
v 1.175522 -0.493284 0.000000
v 1.175522 -0.668940 0.000000
v 0.831219 -0.493284 0.831219
v 0.831219 -0.668940 0.831219
v -0.000000 -0.493284 1.175522
v -0.000000 -0.668940 1.175522
v -0.831220 -0.493284 0.831219
v -0.831220 -0.668940 0.831219
v -1.175521 -0.493284 -0.000000
v -1.175521 -0.668940 -0.000000
v -0.831220 -0.493284 -0.831219
v -0.831220 -0.668940 -0.831219
v 0.000000 -0.668940 -1.175522
v 0.000000 -0.493284 -1.175522
v 0.605979 1.004520 -0.605979
v -0.000000 1.004520 -0.856984
v 0.856984 1.004520 0.000000
v 0.605979 1.004520 0.605979
v -0.000000 1.004520 0.856984
v -0.605979 1.004520 0.605979
v -0.856984 1.004520 -0.000000
v -0.605979 1.004520 -0.605979
v 0.605979 0.885017 -0.605979
v -0.000000 0.885017 -0.856984
v 0.856984 0.885017 0.000000
v 0.605979 0.885017 0.605979
v -0.000000 0.885017 0.856984
v -0.605979 0.885017 0.605979
v -0.856984 0.885017 -0.000000
v -0.605979 0.885017 -0.605979
vt 0.069675 0.751647
vt 0.052234 0.748930
vt 0.052234 0.708730
vt 0.069675 0.706013
vt 0.052234 0.680304
vt 0.069675 0.673745
vt 0.811482 0.751348
vt 0.794040 0.748631
vt 0.794040 0.708431
vt 0.811482 0.705714
vt 0.794040 0.680005
vt 0.811482 0.673446
vt 0.811482 0.902030
vt 0.794040 0.899313
vt 0.794040 0.859113
vt 0.811482 0.856396
vt 0.811482 0.568398
vt 0.794040 0.561839
vt 0.794040 0.533413
vt 0.811482 0.536130
vt 0.338404 0.587548
vt 0.298426 0.587548
vt 0.301284 0.580608
vt 0.335545 0.580608
vt 0.794040 0.493213
vt 0.811482 0.490496
vt 0.069675 0.783915
vt 0.052234 0.777356
vt 0.539387 0.490496
vt 0.567655 0.518922
vt 0.499409 0.587548
vt 0.471140 0.559122
vt 0.689573 0.594107
vt 0.672123 0.600666
vt 0.672123 0.568398
vt 0.689573 0.565681
vt 0.349502 0.164578
vt 0.381591 0.132310
vt 0.383464 0.133090
vt 0.350278 0.166462
vt 0.514880 0.735513
vt 0.497430 0.738230
vt 0.497430 0.692596
vt 0.514880 0.695313
vt 0.381591 0.351296
vt 0.381591 0.305662
vt 0.383464 0.304882
vt 0.383464 0.352076
vt 0.514880 0.763939
vt 0.497430 0.770498
vt 0.304120 0.054408
vt 0.272030 0.086676
vt 0.270157 0.085896
vt 0.303344 0.052524
vt 0.514880 0.918464
vt 0.497430 0.921180
vt 0.497430 0.875547
vt 0.514880 0.878263
vt 0.272030 0.305662
vt 0.272031 0.351296
vt 0.270157 0.352076
vt 0.270157 0.304882
vt 0.672123 0.748631
vt 0.689573 0.751348
vt 0.689573 0.783616
vt 0.672123 0.777057
vt 0.381591 0.086676
vt 0.383464 0.085896
vt 0.672123 0.708431
vt 0.689573 0.705714
vt 0.349502 0.273394
vt 0.350278 0.271510
vt 0.689573 0.525481
vt 0.672123 0.522764
vt 0.672123 0.490496
vt 0.689573 0.497055
vt 0.272031 0.132310
vt 0.270157 0.133090
vt 0.304120 0.383564
vt 0.303344 0.385448
vt 0.163742 0.086751
vt 0.131652 0.054483
vt 0.132459 0.052524
vt 0.165690 0.085939
vt 0.539787 0.318646
vt 0.487932 0.318646
vt 0.487932 0.273013
vt 0.539787 0.273013
vt 0.086271 0.383788
vt 0.131652 0.383788
vt 0.132459 0.385746
vt 0.085464 0.385746
vt 0.487932 0.240745
vt 0.539787 0.240745
vt 0.163742 0.132385
vt 0.165690 0.133196
vt 0.644255 0.240745
vt 0.696110 0.240745
vt 0.696110 0.286378
vt 0.644255 0.286378
vt 0.131652 0.273618
vt 0.086271 0.273618
vt 0.085464 0.271659
vt 0.132459 0.271659
vt 0.696110 0.318646
vt 0.644255 0.318646
vt 0.054181 0.086751
vt 0.054181 0.132385
vt 0.052234 0.133196
vt 0.052234 0.085939
vt 0.720493 0.052524
vt 0.720493 0.104668
vt 0.675112 0.104668
vt 0.675112 0.052524
vt 0.054181 0.351520
vt 0.052234 0.352331
vt 0.104089 0.568696
vt 0.052234 0.568696
vt 0.052234 0.536428
vt 0.104089 0.536428
vt 0.131652 0.164652
vt 0.132459 0.166611
vt 0.052234 0.490795
vt 0.104089 0.490795
vt 0.163742 0.305886
vt 0.165690 0.305075
vt 0.539787 0.350914
vt 0.487932 0.350914
vt 0.392963 0.806534
vt 0.383800 0.806534
vt 0.383800 0.773162
vt 0.392963 0.773162
vt 0.923384 0.287939
vt 0.914221 0.287939
vt 0.914221 0.240745
vt 0.923384 0.240745
vt 0.923384 0.321311
vt 0.914221 0.321311
vt 0.947766 0.099719
vt 0.938603 0.099719
vt 0.938603 0.052524
vt 0.947766 0.052524
vt 0.915949 0.537690
vt 0.925112 0.537690
vt 0.925112 0.571062
vt 0.915949 0.571062
vt 0.915949 0.490496
vt 0.925112 0.490496
vt 0.392963 0.725968
vt 0.383800 0.725968
vt 0.383800 0.692596
vt 0.392963 0.692596
vt 0.349501 0.383564
vt 0.350278 0.385448
vt 0.304120 0.273394
vt 0.303344 0.271510
vt 0.349501 0.054408
vt 0.350277 0.052524
vt 0.304120 0.164578
vt 0.303344 0.166462
vt 0.279332 0.773268
vt 0.270157 0.773268
vt 0.270157 0.726012
vt 0.279332 0.726012
vt 0.270157 0.692596
vt 0.279332 0.692596
vt 0.834136 0.133196
vt 0.824960 0.133196
vt 0.824960 0.085939
vt 0.834136 0.085939
vt 0.824960 0.052524
vt 0.834136 0.052524
vt 0.061409 0.936219
vt 0.052234 0.936219
vt 0.052234 0.888963
vt 0.061409 0.888963
vt 0.800578 0.240745
vt 0.809753 0.240745
vt 0.809753 0.274160
vt 0.800578 0.274160
vt 0.809753 0.321416
vt 0.800578 0.321416
vt 0.279332 0.806683
vt 0.270157 0.806683
vt 0.086271 0.164652
vt 0.085464 0.166611
vt 0.054181 0.305886
vt 0.052234 0.305075
vt 0.163742 0.351520
vt 0.165690 0.352331
vt 0.086271 0.054483
vt 0.085464 0.052524
vt 0.270157 0.518922
vt 0.298426 0.490496
vt 0.301284 0.497436
vt 0.277059 0.521796
vt 0.270157 0.559122
vt 0.277059 0.556247
vt 0.915949 0.923142
vt 0.915949 0.888691
vt 0.922191 0.888691
vt 0.922191 0.923142
vt 0.672123 0.947476
vt 0.672123 0.913025
vt 0.678365 0.913025
vt 0.678365 0.947476
vt 0.922191 0.700471
vt 0.922191 0.734922
vt 0.915949 0.734922
vt 0.915949 0.700471
vt 0.338404 0.490496
vt 0.366672 0.518922
vt 0.359771 0.521796
vt 0.335545 0.497436
vt 0.366672 0.559122
vt 0.359771 0.556247
vt 0.546418 0.135696
vt 0.512158 0.135696
vt 0.512158 0.052524
vt 0.546418 0.052524
vt 0.487932 0.076885
vt 0.487932 0.111336
vt 0.570644 0.111336
vt 0.570644 0.076885
vt 0.383800 0.946033
vt 0.383800 0.911582
vt 0.390042 0.911582
vt 0.390042 0.946033
vt 0.922191 0.676110
vt 0.915949 0.676110
vt 0.922191 0.759282
vt 0.915949 0.759282
vt 0.672123 0.888664
vt 0.678365 0.888664
vt 0.915949 0.864331
vt 0.922191 0.864331
vt 0.567655 0.559122
vt 0.539387 0.587548
vt 0.471140 0.518922
vt 0.499409 0.490496
vn 0.3584 0.3503 -0.8653
vn 0.8653 0.3503 -0.3584
vn 0.8653 0.3503 0.3584
vn 0.3584 0.3503 0.8653
vn -0.3584 0.3503 0.8653
vn -0.8653 0.3503 0.3584
vn -0.0316 0.9994 -0.0131
vn -0.8653 0.3503 -0.3584
vn -0.3584 0.3503 -0.8653
vn 0.0000 -1.0000 -0.0000
vn -0.3585 -0.3501 -0.8654
vn 0.0745 -0.9967 0.0308
vn -0.8654 -0.3501 -0.3585
vn -0.0308 0.9967 0.0745
vn -0.8654 -0.3501 0.3585
vn -0.0745 -0.9967 -0.0308
vn -0.3585 -0.3501 0.8654
vn 0.0308 0.9967 -0.0745
vn 0.3585 -0.3501 0.8654
vn 0.0745 -0.9967 -0.0308
vn 0.8654 -0.3501 0.3585
vn -0.0745 0.9967 0.0308
vn 0.8654 -0.3501 -0.3585
vn -0.0745 -0.9967 0.0308
vn 0.3585 -0.3501 -0.8654
vn 0.0745 0.9967 -0.0308
vn 0.0308 -0.9967 0.0745
vn 0.3827 0.0000 -0.9239
vn 0.0745 0.9967 0.0308
vn 0.9239 0.0000 -0.3827
vn -0.0308 -0.9967 0.0745
vn 0.9239 0.0000 0.3827
vn -0.0745 0.9967 -0.0308
vn 0.3827 0.0000 0.9239
vn 0.0308 -0.9967 -0.0745
vn -0.3827 0.0000 0.9239
vn -0.9239 0.0000 0.3827
vn -0.9239 0.0000 -0.3827
vn -0.3827 0.0000 -0.9239
vn 0.0308 0.9967 0.0745
vn -0.0308 0.9967 -0.0745
vn -0.0308 -0.9967 -0.0745
vn 0.0131 0.9994 0.0316
vn -0.0316 0.9994 0.0131
vn 0.0316 0.9994 -0.0131
vn -0.0131 0.9994 0.0316
vn -0.0131 0.9994 -0.0316
vn 0.0131 0.9994 -0.0316
vn 0.0316 0.9994 0.0131
vn 0.0000 1.0000 0.0000
usemtl Material.001
s off
f 18/1/1 2/2/1 4/3/1 19/4/1
f 19/4/2 4/3/2 6/5/2 21/6/2
f 21/7/3 6/8/3 8/9/3 23/10/3
f 23/10/4 8/9/4 10/11/4 25/12/4
f 25/13/5 10/14/5 12/15/5 27/16/5
f 27/17/6 12/18/6 14/19/6 29/20/6
f 16/21/7 14/22/7 87/23/7 88/24/7
f 29/20/8 14/19/8 16/25/8 31/26/8
f 31/27/9 16/28/9 2/2/9 18/1/9
f 5/29/10 7/30/10 13/31/10 15/32/10
f 15/33/11 32/34/11 17/35/11 1/36/11
f 47/37/12 45/38/12 63/39/12 64/40/12
f 13/41/13 30/42/13 32/43/13 15/44/13
f 18/45/14 19/46/14 57/47/14 50/48/14
f 11/49/15 28/50/15 30/42/15 13/41/15
f 39/51/16 37/52/16 59/53/16 60/54/16
f 9/55/17 26/56/17 28/57/17 11/58/17
f 25/59/18 27/60/18 53/61/18 54/62/18
f 7/63/19 24/64/19 26/65/19 9/66/19
f 45/38/20 43/67/20 62/68/20 63/39/20
f 5/69/21 22/70/21 24/64/21 7/63/21
f 19/46/22 21/71/22 56/72/22 57/47/22
f 3/73/23 20/74/23 22/75/23 5/76/23
f 37/52/24 35/77/24 58/78/24 59/53/24
f 1/36/25 17/35/25 20/74/25 3/73/25
f 27/60/26 29/79/26 52/80/26 53/61/26
f 17/81/27 32/82/27 78/83/27 79/84/27
f 33/85/28 34/86/28 35/87/28 36/88/28
f 46/89/29 48/90/29 77/91/29 75/92/29
f 36/88/30 35/87/30 37/93/30 38/94/30
f 20/95/31 17/81/31 79/84/31 66/96/31
f 38/97/32 37/98/32 39/99/32 40/100/32
f 38/101/33 40/102/33 69/103/33 67/104/33
f 40/100/34 39/99/34 41/105/34 42/106/34
f 28/107/35 26/108/35 72/109/35 74/110/35
f 42/111/36 41/112/36 43/113/36 44/114/36
f 44/115/26 46/89/26 75/92/26 73/116/26
f 44/117/37 43/118/37 45/119/37 46/120/37
f 22/121/24 20/95/24 66/96/24 68/122/24
f 46/120/38 45/119/38 47/123/38 48/124/38
f 36/125/22 38/101/22 67/104/22 65/126/22
f 48/127/39 47/128/39 34/86/39 33/85/39
f 64/129/39 51/130/39 50/131/39 49/132/39
f 63/133/38 52/134/38 51/135/38 64/136/38
f 62/137/37 53/138/37 52/134/37 63/133/37
f 61/139/36 54/140/36 53/141/36 62/142/36
f 60/143/34 55/144/34 54/145/34 61/146/34
f 59/147/32 56/148/32 55/144/32 60/143/32
f 58/149/30 57/150/30 56/151/30 59/152/30
f 49/132/28 50/131/28 57/150/28 58/149/28
f 31/153/40 18/45/40 50/48/40 51/154/40
f 23/155/41 25/59/41 54/62/41 55/156/41
f 41/157/42 39/51/42 60/54/42 61/158/42
f 34/159/27 47/37/27 64/40/27 49/160/27
f 29/79/29 31/153/29 51/154/29 52/80/29
f 35/77/31 34/159/31 49/160/31 58/78/31
f 21/71/33 23/155/33 55/156/33 56/72/33
f 43/67/35 41/157/35 61/158/35 62/68/35
f 79/161/28 80/162/28 65/163/28 66/164/28
f 66/164/30 65/163/30 67/165/30 68/166/30
f 68/167/32 67/168/32 69/169/32 70/170/32
f 70/170/34 69/169/34 71/171/34 72/172/34
f 72/173/36 71/174/36 73/175/36 74/176/36
f 74/177/37 73/178/37 75/179/37 76/180/37
f 76/180/38 75/179/38 77/181/38 78/182/38
f 78/183/39 77/184/39 80/162/39 79/161/39
f 26/108/42 24/185/42 70/186/42 72/109/42
f 40/102/41 42/187/41 71/188/41 69/103/41
f 48/90/40 33/189/40 80/190/40 77/91/40
f 32/82/12 30/191/12 76/192/12 78/83/12
f 33/189/14 36/125/14 65/126/14 80/190/14
f 24/185/16 22/121/16 68/122/16 70/186/16
f 42/187/18 44/115/18 73/116/18 71/188/18
f 30/191/20 28/107/20 74/110/20 76/192/20
f 10/193/43 8/194/43 84/195/43 85/196/43
f 14/22/44 12/197/44 86/198/44 87/23/44
f 84/199/38 83/200/38 91/201/38 92/202/38
f 86/203/28 85/204/28 93/205/28 94/206/28
f 88/207/32 87/208/32 95/209/32 96/210/32
f 6/211/45 4/212/45 81/213/45 83/214/45
f 12/197/46 10/193/46 85/196/46 86/198/46
f 2/215/47 16/21/47 88/24/47 82/216/47
f 4/212/48 2/215/48 82/216/48 81/213/48
f 8/194/49 6/211/49 83/214/49 84/195/49
f 89/217/50 90/218/50 94/219/50 93/220/50
f 95/221/50 94/219/50 90/218/50 96/222/50
f 91/223/50 89/217/50 93/220/50 92/224/50
f 81/225/36 82/226/36 90/227/36 89/228/36
f 82/229/34 88/207/34 96/210/34 90/230/34
f 87/208/30 86/231/30 94/232/30 95/209/30
f 85/204/39 84/233/39 92/234/39 93/205/39
f 83/200/37 81/235/37 89/236/37 91/201/37
f 7/30/10 9/237/10 11/238/10 13/31/10
f 1/239/10 3/240/10 5/29/10 15/32/10
